<mxfile host="65bd71144e">
    <diagram id="ZLlUgijP4z0tVihicqYV" name="Page-1">
        <mxGraphModel dx="1282" dy="1031" grid="1" gridSize="10" guides="1" tooltips="1" connect="1" arrows="1" fold="1" page="1" pageScale="1" pageWidth="1654" pageHeight="1169" math="0" shadow="0">
            <root>
                <mxCell id="0"/>
                <mxCell id="1" parent="0"/>
                <mxCell id="2" value="PricingService" style="swimlane;" parent="1" vertex="1">
                    <mxGeometry x="640" y="330" width="520" height="390" as="geometry"/>
                </mxCell>
                <mxCell id="3" value="&lt;div style=&quot;text-align: left ; font-size: 39px&quot;&gt;&lt;font style=&quot;font-size: 39px&quot;&gt;GetEigibleService&lt;/font&gt;&lt;/div&gt;&lt;div style=&quot;text-align: left ; font-size: 39px&quot;&gt;&lt;font style=&quot;font-size: 39px&quot;&gt;&lt;br&gt;&lt;/font&gt;&lt;/div&gt;&lt;div style=&quot;text-align: left ; font-size: 39px&quot;&gt;&lt;span&gt;&lt;font style=&quot;font-size: 39px&quot;&gt;GetPriceFrom&quot;ServiceName&quot;&lt;/font&gt;&lt;/span&gt;&lt;/div&gt;&lt;div style=&quot;text-align: left ; font-size: 39px&quot;&gt;&lt;span&gt;&lt;font style=&quot;font-size: 39px&quot;&gt;&lt;br&gt;&lt;/font&gt;&lt;/span&gt;&lt;/div&gt;&lt;div style=&quot;text-align: left ; font-size: 39px&quot;&gt;&lt;font style=&quot;font-size: 39px&quot;&gt;PriceManipulation&lt;/font&gt;&lt;/div&gt;" style="text;html=1;align=center;verticalAlign=middle;resizable=0;points=[];autosize=1;strokeColor=none;fillColor=none;fontSize=36;" parent="2" vertex="1">
                    <mxGeometry y="75" width="520" height="220" as="geometry"/>
                </mxCell>
            </root>
        </mxGraphModel>
    </diagram>
</mxfile>